<?xml version="1.0" encoding="UTF-8" standalone="no"?>
<!-- Created with Inkscape (http://www.inkscape.org/) -->

<svg
   width="210mm"
   height="297mm"
   viewBox="0 0 210 297"
   version="1.1"
   id="svg1"
   xml:space="preserve"
   inkscape:version="1.3.1 (91b66b0783, 2023-11-16)"
   sodipodi:docname="auto.svg"
   xmlns:inkscape="http://www.inkscape.org/namespaces/inkscape"
   xmlns:sodipodi="http://sodipodi.sourceforge.net/DTD/sodipodi-0.dtd"
   xmlns="http://www.w3.org/2000/svg"
   xmlns:svg="http://www.w3.org/2000/svg"><sodipodi:namedview
     id="namedview1"
     pagecolor="#ffffff"
     bordercolor="#000000"
     borderopacity="0.25"
     inkscape:showpageshadow="2"
     inkscape:pageopacity="0.0"
     inkscape:pagecheckerboard="0"
     inkscape:deskcolor="#d1d1d1"
     inkscape:document-units="mm"
     inkscape:zoom="1.3190696"
     inkscape:cx="391.94293"
     inkscape:cy="685.71059"
     inkscape:window-width="2400"
     inkscape:window-height="1261"
     inkscape:window-x="-9"
     inkscape:window-y="172"
     inkscape:window-maximized="1"
     inkscape:current-layer="layer1" /><defs
     id="defs1" /><g
     inkscape:label="Sloj 1"
     inkscape:groupmode="layer"
     id="layer1"><path
       style="fill:#000000"
       d="m 64.427606,217.70398 c -7.909288,-1.21709 -13.890624,-7.75785 -13.890624,-15.18979 v -1.74775 h -3.96875 -3.96875 v -2.64583 -2.64584 h 2.667412 2.667412 l -0.08772,-3.32964 -0.08772,-3.32964 -0.895538,-0.79951 c -0.786363,-0.70205 -1.025259,-0.77878 -1.959619,-0.62937 l -1.064081,0.17015 0.176413,-4.04464 c 0.158783,-3.64043 0.413305,-5.75925 0.86253,-7.1803 0.135225,-0.42776 0.05093,-0.467 -0.665242,-0.30971 -0.744238,0.16347 -0.820088,0.11971 -0.820088,-0.47304 0,-1.0214 0.717814,-1.65404 3.650616,-3.21743 4.561763,-2.43174 7.429913,-4.80715 18.706675,-15.49291 11.351028,-10.75613 10.64083,-10.29858 17.197916,-11.07989 8.938337,-1.06503 16.392071,-1.55694 26.987502,-1.78103 13.6522,-0.28874 23.9375,0.6554 29.46677,2.70491 2.12058,0.78602 4.36525,2.52562 11.37715,8.81717 7.90301,7.0911 8.46635,7.51747 11.22139,8.49292 15.9411,5.64412 28.6623,11.06314 30.53958,13.00934 0.54417,0.56416 0.98239,1.40154 1.22143,2.33403 l 0.37279,1.45422 -4.52873,0.13229 c -3.06447,0.0895 -4.72844,0.24611 -5.14643,0.48432 -0.82618,0.47083 -1.36666,1.84884 -1.36666,3.48443 0,1.65058 0.50035,2.90581 1.45883,3.65974 0.68069,0.53544 1.01781,0.57359 5.06825,0.57359 h 4.33906 l -0.17213,1.38907 c -0.0947,0.76398 -0.31926,2.1966 -0.49909,3.1836 -0.17983,0.987 -0.22554,1.85723 -0.10157,1.93384 0.12397,0.0766 0.2254,1.26337 0.2254,2.63723 v 2.49793 h -6.81406 -6.81405 l -0.0569,1.74755 c -0.12982,3.98537 -1.75249,7.63783 -4.69022,10.5572 -3.21654,3.19643 -6.75393,4.66095 -11.25807,4.66095 -4.66936,0 -7.94894,-1.35722 -11.25324,-4.65702 -3.05686,-3.05271 -4.3672,-5.9053 -4.78689,-10.42099 l -0.17545,-1.88769 H 115.05732 82.551564 l -0.0046,1.25677 c -0.01816,4.96879 -2.988857,10.30882 -7.342445,13.19856 -2.895096,1.92166 -7.510864,2.98479 -10.776919,2.48221 z m 6.547819,-5.92599 c 3.378463,-1.6232 5.743759,-4.77939 6.310674,-8.42079 0.710564,-4.5641 -1.812132,-9.28974 -6.081673,-11.39249 -1.641068,-0.80822 -1.89925,-0.85556 -4.666222,-0.85556 -2.854216,0 -2.980657,0.0255 -4.94993,0.9981 -2.386511,1.17867 -3.862675,2.69871 -5.068969,5.21961 -0.759432,1.58705 -0.822948,1.93421 -0.822948,4.49791 0,2.5754 0.06165,2.90828 0.84485,4.56162 0.959888,2.02634 2.865848,4.08711 4.608555,4.98287 2.097974,1.07838 3.156576,1.30108 5.791386,1.21832 2.100215,-0.066 2.763612,-0.19909 4.034277,-0.80959 z m -6.938279,-0.57138 c -1.99958,-0.55997 -3.436926,-1.45909 -4.856354,-3.03784 -3.267398,-3.63413 -3.212672,-9.16507 0.126837,-12.81902 2.487053,-2.72124 6.018128,-3.82678 9.430446,-2.95259 6.669348,1.70861 9.550344,9.23422 5.705377,14.90334 -2.261968,3.3351 -6.613162,4.96836 -10.406306,3.90611 z m 0.98585,-2.43638 c 0.144664,-0.43448 -0.684339,-0.74463 -1.039912,-0.38906 -0.152164,0.15217 -0.192591,0.41269 -0.08984,0.57895 0.233773,0.37825 0.982482,0.25241 1.12975,-0.18989 z m 3.455868,0.003 c -0.132824,-0.6897 -1.008549,-0.76662 -1.008549,-0.0886 0,0.37865 0.169922,0.54857 0.548567,0.54857 0.378645,0 0.521127,-0.14248 0.459982,-0.45998 z m -6.564799,-1.65669 c 0,-0.35278 -0.176389,-0.52917 -0.529167,-0.52917 -0.352778,0 -0.529166,0.17639 -0.529166,0.52917 0,0.35278 0.176388,0.52917 0.529166,0.52917 0.352778,0 0.529167,-0.17639 0.529167,-0.52917 z m 9.723514,0.0663 c 0.144664,-0.43448 -0.684339,-0.74463 -1.039912,-0.38906 -0.152164,0.15217 -0.192591,0.41269 -0.08984,0.57895 0.233773,0.37825 0.982482,0.25241 1.12975,-0.18989 z m -3.17019,-0.47579 c 2.228597,-0.93117 3.346535,-2.79552 3.1862,-5.31354 -0.08672,-1.36196 -0.251391,-1.84829 -0.903232,-2.66764 -2.343373,-2.94556 -6.569363,-2.86518 -8.704,0.16556 -0.694405,0.9859 -0.79375,1.35306 -0.79375,2.93345 0,1.5804 0.09934,1.94755 0.79375,2.93346 1.472689,2.09091 4.141908,2.90099 6.421032,1.94871 z m -8.600026,-2.12991 c 0.252495,-0.25249 -0.09253,-0.90017 -0.479532,-0.90017 -0.443223,0 -0.732384,0.4444 -0.516474,0.79375 0.180711,0.29239 0.749281,0.35315 0.996006,0.10642 z m 13.688368,-0.39041 c 0,-0.67803 -0.875725,-0.60111 -1.008549,0.0886 -0.06115,0.3175 0.08134,0.45998 0.459982,0.45998 0.378645,0 0.548567,-0.16992 0.548567,-0.54857 z m -14.088985,-3.35389 c 0.144664,-0.43448 -0.684338,-0.74463 -1.039912,-0.38906 -0.152164,0.15217 -0.192591,0.41269 -0.08984,0.57895 0.233773,0.37825 0.982482,0.25241 1.12975,-0.18989 z m 14.568368,0.003 c -0.132824,-0.6897 -1.008549,-0.76662 -1.008549,-0.0886 0,0.37865 0.169922,0.54857 0.548567,0.54857 0.378644,0 0.521127,-0.14248 0.459982,-0.45998 z m -13.532821,-3.12968 c 0.220519,-0.57467 -0.339312,-1.11509 -0.740027,-0.71438 -0.338675,0.33868 -0.128865,1.12904 0.299716,1.12904 0.154655,0 0.352795,-0.1866 0.440311,-0.41466 z m 12.347945,0.0371 c 0.192003,-0.50035 -0.402503,-0.97716 -0.863289,-0.69237 -0.438099,0.27076 -0.182988,1.0699 0.341546,1.0699 0.207279,0 0.442064,-0.16989 0.521743,-0.37753 z m -9.660002,-2.62096 c 0.05768,-0.29741 -0.09314,-0.4411 -0.463021,-0.4411 -0.301712,0 -0.548567,0.15875 -0.548567,0.35278 0,0.81035 0.857045,0.88518 1.011588,0.0883 z m 7.124427,0.15436 c 0.144664,-0.43448 -0.684339,-0.74463 -1.039913,-0.38906 -0.152163,0.15217 -0.192591,0.41269 -0.08984,0.57895 0.233773,0.37825 0.982483,0.25241 1.129751,-0.18989 z m -3.373515,-1.00502 c 0,-0.49713 -0.522034,-0.76173 -0.851936,-0.43183 -0.39511,0.39511 -0.04754,1.12994 0.445046,0.94092 0.223789,-0.0859 0.40689,-0.31497 0.40689,-0.50909 z m 101.335412,17.43769 c 2.50134,-1.18486 4.03936,-2.67121 5.2054,-5.03054 0.85477,-1.72951 0.99802,-2.29149 1.0915,-4.2822 0.087,-1.85322 -0.002,-2.61612 -0.46651,-3.98928 -1.0152,-3.00223 -2.91549,-5.14974 -5.82053,-6.57779 -1.33689,-0.65718 -1.73126,-0.72019 -4.50777,-0.72019 -2.80291,0 -3.16261,0.0589 -4.564,0.74703 -7.73464,3.79811 -8.61984,14.17161 -1.62025,18.98745 2.03706,1.40153 3.61215,1.82898 6.44883,1.75008 2.17413,-0.0605 2.74577,-0.17992 4.23333,-0.88456 z m -6.68181,-0.38204 c -6.61246,-1.55844 -9.65814,-9.35967 -5.84758,-14.97806 1.09434,-1.61351 2.17968,-2.49518 4.26501,-3.46463 1.271,-0.59088 1.88284,-0.70509 3.76647,-0.7031 1.90588,0.002 2.5001,0.11714 3.89529,0.75472 4.04122,1.84679 6.45961,6.36521 5.63908,10.53587 -0.40481,2.0576 -1.06419,3.3655 -2.46035,4.88015 -2.38556,2.58804 -5.98804,3.7457 -9.25792,2.97505 z m 0.69561,-2.30507 c 0.23301,-0.37701 -0.29868,-0.92887 -0.73397,-0.76183 -0.59785,0.22942 -0.5291,0.9729 0.09,0.9729 0.28246,0 0.57226,-0.095 0.644,-0.21107 z m 3.53888,-0.25181 c 0.14467,-0.43448 -0.68434,-0.74463 -1.03991,-0.38906 -0.15216,0.15217 -0.19259,0.41269 -0.0898,0.57895 0.23378,0.37825 0.98249,0.25241 1.12975,-0.18989 z m -6.61458,-1.5875 c 0.14466,-0.43448 -0.68434,-0.74463 -1.03991,-0.38906 -0.15217,0.15217 -0.19259,0.41269 -0.0898,0.57895 0.23377,0.37825 0.98248,0.25241 1.12975,-0.18989 z m 9.59107,-0.0663 c 0,-0.29104 -0.17157,-0.52917 -0.38126,-0.52917 -0.46741,0 -0.76625,0.43541 -0.54478,0.79375 0.28773,0.46556 0.92604,0.28319 0.92604,-0.26458 z m -2.6213,-0.61562 c 3.8688,-2.04249 3.78187,-7.68626 -0.14588,-9.47038 -3.57268,-1.62285 -7.55157,0.90327 -7.55157,4.79433 0,3.99354 4.18021,6.53293 7.69745,4.67605 z m -9.02037,-2.2948 c 0,-0.35277 -0.17639,-0.52916 -0.52916,-0.52916 -0.35278,0 -0.52917,0.17639 -0.52917,0.52916 0,0.35278 0.17639,0.52917 0.52917,0.52917 0.35277,0 0.52916,-0.17639 0.52916,-0.52917 z m 13.70797,0.0661 c -0.049,-0.25466 -0.26451,-0.46302 -0.4788,-0.46302 -0.2143,0 -0.42976,0.20836 -0.4788,0.46302 -0.0626,0.32487 0.0803,0.46302 0.4788,0.46302 0.3985,0 0.54136,-0.13815 0.4788,-0.46302 z m -14.03862,-3.43944 c 0.14466,-0.43448 -0.68434,-0.74463 -1.03991,-0.38906 -0.15217,0.15217 -0.19259,0.41269 -0.0898,0.57895 0.23377,0.37825 0.98248,0.25241 1.12975,-0.18989 z m 14.55208,0 c 0.14467,-0.43448 -0.68434,-0.74463 -1.03991,-0.38906 -0.15216,0.15217 -0.19259,0.41269 -0.0898,0.57895 0.23378,0.37825 0.98248,0.25241 1.12975,-0.18989 z m -13.51653,-3.12678 c 0.22052,-0.57467 -0.33931,-1.11509 -0.74003,-0.71438 -0.33868,0.33868 -0.12887,1.12904 0.29972,1.12904 0.15465,0 0.35279,-0.1866 0.44031,-0.41466 z m 12.17425,-0.009 c 0.18718,-0.48779 -0.45269,-0.99621 -0.80738,-0.64152 -0.28879,0.28879 -0.0237,1.0651 0.36365,1.0651 0.15465,0 0.35433,-0.19061 0.44373,-0.42358 z m -9.48935,-2.55602 c 0.0591,-0.30706 -0.0791,-0.45999 -0.41588,-0.45999 -0.64776,0 -0.8582,0.21884 -0.67344,0.70032 0.19644,0.51191 0.97764,0.33956 1.08932,-0.24033 z m 7.01471,0.22734 c 0.17841,-0.46493 -0.0348,-0.68733 -0.65902,-0.68733 -0.47403,0 -0.65981,0.53082 -0.30868,0.88195 0.2995,0.2995 0.81811,0.1952 0.9677,-0.19462 z m -3.37736,-1.45569 c -0.22718,-0.36759 -0.85756,-0.37563 -1.08119,-0.0138 -0.0939,0.1519 -0.0218,0.45553 0.1601,0.67474 0.2894,0.34871 0.37891,0.35043 0.71554,0.0138 0.21162,-0.21162 0.30412,-0.51525 0.20555,-0.67474 z m 27.58233,-1.67903 c -0.081,-1.11901 -0.0868,-1.12488 -1.20583,-1.20584 l -1.12448,-0.0814 v 1.20584 1.20584 h 1.20584 1.20583 z m -80.38239,-7.18211 v -1.16283 l -1.07208,-0.10224 c -0.58965,-0.0562 -1.12543,-0.0489 -1.19063,0.0163 -0.18635,0.18634 -0.1384,2.03896 0.0579,2.23521 0.097,0.097 0.63279,0.17639 1.19062,0.17639 h 1.01424 z m 0,-3.46737 v -1.19063 h -1.19063 -1.19062 v 1.19063 1.19062 h 1.19062 1.19063 z M 97.831251,170.70248 105.8349,170.5432 v -9.98235 -9.98235 l -4.16719,-0.17284 c -12.990391,-0.53877 -18.491266,0.0266 -23.30547,2.39523 -2.390315,1.17607 -5.923186,4.46853 -11.057342,10.30491 -1.951191,2.21807 -3.664687,4.1052 -3.807768,4.19363 -0.39894,0.24656 -0.309446,1.26434 0.171559,1.95107 0.237438,0.33899 1.04111,0.90625 1.785937,1.26058 l 1.35423,0.64423 11.509375,-0.14678 c 6.330156,-0.0807 15.111015,-0.21845 19.51302,-0.30605 z m 34.065099,-0.49856 c 19.47964,-0.31496 21.88562,-0.41208 22.88281,-0.92361 0.99867,-0.51229 1.94474,-1.44407 2.1984,-2.16517 0.0879,-0.24992 -0.0707,-0.73556 -0.3607,-1.1042 -1.05418,-1.34017 -13.84078,-12.76203 -16.85124,-15.05267 l -1.39115,-1.05852 -12.23489,0.16859 c -6.72919,0.0927 -13.75294,0.24007 -15.60833,0.32746 l -3.37344,0.15887 v 10.05985 10.05985 l 8.26823,-0.16891 c 4.54753,-0.0929 11.95917,-0.2286 16.47031,-0.30154 z"
       id="path1" /><path
       style="display:inline;fill:none;fill-rule:evenodd;stroke:#000000;stroke-width:0.264583px;stroke-linecap:butt;stroke-linejoin:miter;stroke-opacity:1"
       d="m 193.26201,180.02351 0.30087,10.93179"
       id="path2"
       inkscape:connector-type="polyline"
       inkscape:connector-curvature="0" /><path
       style="display:inline;fill:none;fill-rule:evenodd;stroke:#000000;stroke-width:0.264583px;stroke-linecap:butt;stroke-linejoin:miter;stroke-opacity:1"
       d="m 44.323066,187.36246 -1.560172,8.51003"
       id="path3"
       inkscape:connector-type="polyline"
       inkscape:connector-curvature="0" /></g></svg>
